<svg version="1.1" id="Layer_1" xmlns="http://www.w3.org/2000/svg" xmlns:xlink="http://www.w3.org/1999/xlink" x="0px" y="0px"
	 width="100%" viewBox="0 0 99 100" enable-background="new 0 0 99 100" xml:space="preserve">
<path fill="#1B034F" opacity="1.000000" stroke="none" 
	d="
M53.000000,101.000000 
	C35.333336,101.000000 18.166674,101.000000 1.000007,101.000000 
	C1.000005,67.666679 1.000005,34.333351 1.000002,1.000020 
	C33.999985,1.000014 66.999969,1.000014 99.999969,1.000007 
	C99.999977,34.333313 99.999977,67.666626 99.999985,100.999969 
	C84.500000,101.000000 69.000000,101.000000 53.000000,101.000000 
M9.094885,45.918335 
	C9.394497,50.879803 9.059956,55.979134 10.103439,60.778881 
	C14.633787,81.617294 35.295357,95.845009 56.009628,92.786453 
	C78.457497,89.471924 93.726921,69.975990 91.976410,46.864220 
	C90.412689,26.218767 72.078651,9.317614 51.174366,8.961748 
	C31.875843,8.633217 12.705729,22.539938 9.094885,45.918335 
z"/>
<path fill="#790CEC" opacity="1.000000" stroke="none" 
	d="
M9.147203,45.472336 
	C12.705729,22.539938 31.875843,8.633217 51.174366,8.961748 
	C72.078651,9.317614 90.412689,26.218767 91.976410,46.864220 
	C93.726921,69.975990 78.457497,89.471924 56.009628,92.786453 
	C35.295357,95.845009 14.633787,81.617294 10.103439,60.778881 
	C9.059956,55.979134 9.394497,50.879803 9.147203,45.472336 
M48.504303,90.550850 
	C50.020199,90.440422 51.536095,90.329994 53.883720,90.228416 
	C56.561832,89.578094 59.239944,88.927773 62.390797,88.736221 
	C90.164803,80.493164 99.377251,43.625340 78.662506,23.421061 
	C78.662506,23.421061 78.504074,23.353500 78.378845,23.046623 
	C78.378845,23.046623 78.076797,22.910168 77.783676,22.328276 
	C77.071236,21.888845 76.358788,21.449415 75.542694,20.364176 
	C72.693939,18.617872 69.845192,16.871569 66.388901,14.702117 
	C63.259628,13.835608 60.130356,12.969101 56.188934,11.932841 
	C54.806942,11.953639 53.424950,11.974438 51.573849,11.360284 
	C48.016808,11.801135 44.459770,12.241986 40.131447,12.747391 
	C37.354435,14.144106 34.577423,15.540822 31.160910,16.858679 
	C30.583204,17.087934 30.005499,17.317190 28.835146,17.844301 
	C25.844862,20.885008 22.854578,23.925714 19.437445,27.049997 
	C19.122402,27.156639 18.957870,27.376114 18.350187,28.101669 
	C4.268744,49.612762 11.808029,77.231331 34.613590,87.377541 
	C36.260254,88.110130 38.265575,88.036568 40.671692,88.730171 
	C43.083370,89.233154 45.495049,89.736137 48.504303,90.550850 
z"/>
<path fill="#DDD8EF" opacity="1.000000" stroke="none" 
	d="
M52.042957,11.995235 
	C53.424950,11.974438 54.806942,11.953639 56.661484,12.365072 
	C58.627213,15.808190 60.120392,18.819075 61.863968,22.334866 
	C63.989876,19.662817 65.496429,17.769234 67.079269,16.258617 
	C68.020462,19.392712 68.885376,22.143837 69.881256,25.311531 
	C72.215950,23.569529 73.931145,22.289755 75.646347,21.009983 
	C76.358788,21.449415 77.071236,21.888845 77.831528,22.761127 
	C78.087616,23.247152 78.295845,23.300327 78.504074,23.353500 
	C78.504074,23.353500 78.662506,23.421061 78.444145,23.847424 
	C77.588120,27.208883 76.950455,30.143982 76.188606,33.650696 
	C77.654198,33.087059 78.696487,32.686214 80.188095,32.112572 
	C80.292725,34.232830 80.033051,36.269806 80.587868,38.053413 
	C81.090141,39.668076 82.481148,41.006287 83.698120,42.784733 
	C82.885902,44.390121 81.948181,46.243565 80.874367,48.366005 
	C82.098686,48.627304 83.237457,48.870346 84.581215,49.157139 
	C82.694115,50.627609 81.066490,51.895889 79.085098,53.439838 
	C80.811989,54.690125 82.072060,55.602436 83.375290,56.545986 
	C81.774185,57.851955 80.423935,58.953304 78.854904,59.898155 
	C77.081009,59.185474 75.525902,58.629284 73.651733,58.044296 
	C72.602753,57.639484 71.872826,57.263466 71.100067,56.709873 
	C71.057220,56.532295 71.045250,56.167141 71.356682,56.002075 
	C72.792564,51.814362 72.792564,51.814362 70.751266,51.006264 
	C70.560165,50.963104 70.168343,50.964554 70.048004,50.729057 
	C69.623657,50.388462 69.319641,50.283363 68.618149,50.051010 
	C57.492149,46.936806 46.764774,47.684250 35.844627,49.641907 
	C33.287407,49.889618 30.923428,50.429134 29.811321,50.682941 
	C28.622952,53.874928 27.844624,55.965542 26.819065,57.971230 
	C25.393824,58.471153 24.215811,59.056004 22.769810,59.509373 
	C21.858942,59.222462 20.649933,58.943256 20.653038,58.929054 
	C21.690058,54.185707 17.245138,55.128864 14.723442,53.460064 
	C20.742361,50.734097 15.510026,47.027355 15.911474,43.930176 
	C21.718481,39.295895 20.190796,33.475842 18.943851,27.708420 
	C18.957870,27.376114 19.122402,27.156639 19.971809,27.152172 
	C22.329140,28.448540 24.152107,29.642731 25.309126,30.400671 
	C26.981949,26.317081 28.541946,22.570959 30.015379,18.791094 
	C30.129936,18.497215 29.637899,17.966883 29.427794,17.546448 
	C30.005499,17.317190 30.583204,17.087934 31.814163,17.048080 
	C33.527439,19.365694 34.587467,21.493906 36.089401,24.509342 
	C38.191475,20.733126 40.068470,17.361246 42.237629,13.889662 
	C44.001835,15.546679 45.473877,17.303404 47.561260,19.794474 
	C49.110325,17.098728 50.576641,14.546982 52.042957,11.995235 
z"/>
<path fill="#F9F6FC" opacity="1.000000" stroke="none" 
	d="
M79.073692,60.054653 
	C80.423935,58.953304 81.774185,57.851955 83.375290,56.545986 
	C82.072060,55.602436 80.811989,54.690125 79.085098,53.439838 
	C81.066490,51.895889 82.694115,50.627609 84.581215,49.157139 
	C83.237457,48.870346 82.098686,48.627304 80.874367,48.366005 
	C81.948181,46.243565 82.885902,44.390121 83.698120,42.784733 
	C82.481148,41.006287 81.090141,39.668076 80.587868,38.053413 
	C80.033051,36.269806 80.292725,34.232830 80.188095,32.112572 
	C78.696487,32.686214 77.654198,33.087059 76.188606,33.650696 
	C76.950455,30.143982 77.588120,27.208883 78.447189,23.933483 
	C99.377251,43.625340 90.164803,80.493164 62.264893,88.135498 
	C64.135452,85.955269 65.222977,84.247795 62.923462,81.679199 
	C64.005417,79.336060 65.162537,77.417549 66.117363,75.403152 
	C67.168503,73.185547 68.033684,70.879799 69.303848,68.454971 
	C70.088272,68.176971 70.548714,68.056458 71.420471,67.980469 
	C79.183784,67.705757 79.395622,67.472610 79.073692,60.054653 
z"/>
<path fill="#F8F5FB" opacity="1.000000" stroke="none" 
	d="
M18.647018,27.905045 
	C20.190796,33.475842 21.718481,39.295895 15.911474,43.930176 
	C15.510026,47.027355 20.742361,50.734097 14.723442,53.460064 
	C17.245138,55.128864 21.690058,54.185707 20.653038,58.929054 
	C20.649933,58.943256 21.858942,59.222462 22.643864,59.859852 
	C21.766546,63.008099 20.992466,65.870628 23.897360,67.649956 
	C25.165043,68.426445 27.212315,67.930191 29.267296,68.048309 
	C30.090265,68.152725 30.551485,68.220757 31.134548,68.594528 
	C33.840996,72.600151 36.425602,76.300026 39.003204,80.336540 
	C39.027157,81.120277 39.058109,81.567368 38.982925,82.260376 
	C38.947525,82.670235 39.018269,82.834175 38.961090,83.325775 
	C39.187866,84.927315 39.542568,86.201202 39.890675,87.704750 
	C39.884079,87.934418 40.104137,88.337830 40.104137,88.337830 
	C38.265575,88.036568 36.260254,88.110130 34.613590,87.377541 
	C11.808029,77.231331 4.268744,49.612762 18.647018,27.905045 
z"/>
<path fill="#541D8D" opacity="1.000000" stroke="none" 
	d="
M62.909454,82.061562 
	C65.222977,84.247795 64.135452,85.955269 62.028519,87.906113 
	C59.239944,88.927773 56.561832,89.578094 53.536579,89.881447 
	C54.291985,88.783463 55.394531,88.032448 56.520950,87.265167 
	C53.808556,86.244392 49.188587,88.736542 49.337387,82.986481 
	C54.026066,81.348419 58.296970,78.680016 62.909454,82.061562 
z"/>
<path fill="#F7F4FC" opacity="1.000000" stroke="none" 
	d="
M41.945465,13.989368 
	C40.068470,17.361246 38.191475,20.733126 36.089401,24.509342 
	C34.587467,21.493906 33.527439,19.365694 32.133911,17.087509 
	C34.577423,15.540822 37.354435,14.144106 40.646980,12.965846 
	C41.423500,13.452658 41.684483,13.721014 41.945465,13.989368 
z"/>
<path fill="#F2EDFB" opacity="1.000000" stroke="none" 
	d="
M29.131470,17.695374 
	C29.637899,17.966883 30.129936,18.497215 30.015379,18.791094 
	C28.541946,22.570959 26.981949,26.317081 25.309126,30.400671 
	C24.152107,29.642731 22.329140,28.448540 20.185234,27.110384 
	C22.854578,23.925714 25.844862,20.885008 29.131470,17.695374 
z"/>
<path fill="#F8F5FD" opacity="1.000000" stroke="none" 
	d="
M67.002983,15.875647 
	C65.496429,17.769234 63.989876,19.662817 61.863968,22.334866 
	C60.120392,18.819075 58.627213,15.808190 57.067558,12.449949 
	C60.130356,12.969101 63.259628,13.835608 66.693237,15.101294 
	C66.997566,15.500469 67.002983,15.875647 67.002983,15.875647 
z"/>
<path fill="#4E1A83" opacity="1.000000" stroke="none" 
	d="
M48.987862,83.164856 
	C49.188587,88.736542 53.808556,86.244392 56.520950,87.265167 
	C55.394531,88.032448 54.291985,88.783463 53.120712,89.877022 
	C51.536095,90.329994 50.020199,90.440422 48.166134,90.071404 
	C46.204868,89.092842 44.581776,88.593727 41.645905,87.690926 
	C44.212757,87.171944 45.463184,86.919128 45.921638,86.826431 
	C45.921638,84.493324 45.921638,82.690613 46.261765,80.859741 
	C47.397217,81.609329 48.192539,82.387093 48.987862,83.164856 
z"/>
<path fill="#541D8D" opacity="1.000000" stroke="none" 
	d="
M45.921638,80.887909 
	C45.921638,82.690613 45.921638,84.493324 45.921638,86.826431 
	C45.463184,86.919128 44.212757,87.171944 41.645905,87.690926 
	C44.581776,88.593727 46.204868,89.092842 47.867348,89.915543 
	C45.495049,89.736137 43.083370,89.233154 40.387917,88.533997 
	C40.104137,88.337830 39.884079,87.934418 39.904755,87.308510 
	C39.646626,85.454445 39.367821,84.226280 39.089016,82.998123 
	C39.018269,82.834175 38.947525,82.670235 39.266823,82.191360 
	C40.105434,81.299873 40.554008,80.723312 41.366470,80.167122 
	C43.127449,80.420959 44.524544,80.654434 45.921638,80.887909 
z"/>
<path fill="#EEE8F9" opacity="1.000000" stroke="none" 
	d="
M42.237629,13.889662 
	C41.684483,13.721014 41.423500,13.452658 41.032623,12.933570 
	C44.459770,12.241986 48.016808,11.801135 51.808403,11.677760 
	C50.576641,14.546982 49.110325,17.098728 47.561260,19.794474 
	C45.473877,17.303404 44.001835,15.546679 42.237629,13.889662 
z"/>
<path fill="#F4EEFC" opacity="1.000000" stroke="none" 
	d="
M67.079269,16.258617 
	C67.002983,15.875647 66.997566,15.500469 66.997002,15.312868 
	C69.845192,16.871569 72.693939,18.617872 75.594521,20.687078 
	C73.931145,22.289755 72.215950,23.569529 69.881256,25.311531 
	C68.885376,22.143837 68.020462,19.392712 67.079269,16.258617 
z"/>
<path fill="#F9F6FC" opacity="1.000000" stroke="none" 
	d="
M78.441460,23.200062 
	C78.295845,23.300327 78.087616,23.247152 77.978088,23.052074 
	C78.076797,22.910168 78.378845,23.046623 78.441460,23.200062 
z"/>
<path fill="#1B0432" opacity="1.000000" stroke="none" 
	d="
M36.037865,49.933716 
	C46.764774,47.684250 57.492149,46.936806 68.780235,50.222641 
	C69.584488,50.728077 69.860672,50.875755 70.168343,50.964554 
	C70.168343,50.964554 70.560165,50.963104 70.768051,51.431793 
	C70.999046,53.322701 71.022148,54.744923 71.045250,56.167141 
	C71.045250,56.167141 71.057220,56.532295 70.855896,56.970081 
	C68.764244,59.559383 66.873917,61.710899 64.595276,64.014061 
	C60.240128,64.041557 56.273579,63.906902 52.306301,63.798943 
	C50.912979,63.761028 49.517853,63.782570 48.123589,63.787468 
	C44.086338,63.801640 40.049110,63.821144 35.892948,63.517204 
	C31.414101,61.545341 30.014421,57.758339 30.556782,53.844238 
	C30.768417,52.316891 34.117706,51.224316 36.037865,49.933716 
z"/>
<path fill="#F5D8CC" opacity="1.000000" stroke="none" 
	d="
M78.854904,59.898155 
	C79.395622,67.472610 79.183784,67.705757 71.413635,67.568878 
	C71.987251,64.099548 72.979019,61.086319 73.970795,58.073097 
	C75.525902,58.629284 77.081009,59.185474 78.854904,59.898155 
z"/>
<path fill="#F0D3C7" opacity="1.000000" stroke="none" 
	d="
M28.905546,68.011932 
	C27.212315,67.930191 25.165043,68.426445 23.897360,67.649956 
	C20.992466,65.870628 21.766546,63.008099 22.911854,59.991333 
	C24.215811,59.056004 25.393824,58.471153 26.911655,58.328575 
	C30.426960,61.381512 30.969938,64.463371 28.905546,68.011932 
z"/>
<path fill="#1D181E" opacity="1.000000" stroke="none" 
	d="
M29.267296,68.048309 
	C30.969938,64.463371 30.426960,61.381512 27.158882,58.413498 
	C27.844624,55.965542 28.622952,53.874928 29.811321,50.682941 
	C30.923428,50.429134 33.287407,49.889618 35.844627,49.641907 
	C34.117706,51.224316 30.768417,52.316891 30.556782,53.844238 
	C30.014421,57.758339 31.414101,61.545341 35.538887,63.539734 
	C34.266346,64.410110 33.041714,64.745415 32.248966,65.521751 
	C31.577539,66.179260 31.405649,67.346893 31.012703,68.288780 
	C30.551485,68.220757 30.090265,68.152725 29.267296,68.048309 
z"/>
<path fill="#1C181F" opacity="1.000000" stroke="none" 
	d="
M73.651733,58.044300 
	C72.979019,61.086319 71.987251,64.099548 71.002319,67.524353 
	C70.548714,68.056458 70.088272,68.176971 69.297401,67.983109 
	C69.290680,64.671631 68.635223,62.699245 64.983582,63.862415 
	C66.873917,61.710899 68.764244,59.559383 70.898743,57.147659 
	C71.872826,57.263466 72.602753,57.639484 73.651733,58.044300 
z"/>
<path fill="#1C181F" opacity="1.000000" stroke="none" 
	d="
M71.356682,56.002075 
	C71.022148,54.744923 70.999046,53.322701 70.959152,51.474953 
	C72.792564,51.814362 72.792564,51.814362 71.356682,56.002075 
z"/>
<path fill="#1C181F" opacity="1.000000" stroke="none" 
	d="
M70.048004,50.729057 
	C69.860672,50.875755 69.584488,50.728077 69.177704,50.349892 
	C69.319641,50.283363 69.623657,50.388462 70.048004,50.729057 
z"/>
<path fill="#F3D7CB" opacity="1.000000" stroke="none" 
	d="
M64.595276,64.014061 
	C68.635223,62.699245 69.290680,64.671631 68.973419,68.140594 
	C68.033684,70.879799 67.168503,73.185547 66.117363,75.403152 
	C65.162537,77.417549 64.005417,79.336060 62.923462,81.679199 
	C58.296970,78.680016 54.026066,81.348419 49.337387,82.986481 
	C48.192539,82.387093 47.397217,81.609329 46.261765,80.859741 
	C44.524544,80.654434 43.127449,80.420959 41.042999,80.070457 
	C39.907166,79.968918 39.458687,79.984406 39.010204,79.999901 
	C36.425602,76.300026 33.840996,72.600151 31.134548,68.594528 
	C31.405649,67.346893 31.577539,66.179260 32.248966,65.521751 
	C33.041714,64.745415 34.266346,64.410110 35.657806,63.861080 
	C40.049110,63.821144 44.086338,63.801640 48.123589,63.787468 
	C49.517853,63.782570 50.912979,63.761028 52.306301,63.798943 
	C56.273579,63.906902 60.240128,64.041557 64.595276,64.014061 
z"/>
<path fill="#4E1A83" opacity="1.000000" stroke="none" 
	d="
M38.961090,83.325775 
	C39.367821,84.226280 39.646626,85.454445 39.911350,87.078842 
	C39.542568,86.201202 39.187866,84.927315 38.961090,83.325775 
z"/>
<path fill="#4E1A83" opacity="1.000000" stroke="none" 
	d="
M39.003204,80.336540 
	C39.458687,79.984406 39.907166,79.968918 40.679115,80.050095 
	C40.554008,80.723312 40.105434,81.299873 39.372963,81.945450 
	C39.058109,81.567368 39.027157,81.120277 39.003204,80.336540 
z"/>
</svg>